<?xml version="1.0" encoding="UTF-8"?>
<svg id="Layer_2" data-name="Layer 2" xmlns="http://www.w3.org/2000/svg" viewBox="0 0 349.77 349.77">
  <g id="Layer_1-2" data-name="Layer 1">
    <g>
      <path d="M235.13,240.82h.64c-.37.44-.72.9-1.07,1.36h-.65c-2.74,3.55-4.93,7.53-6.48,11.82h.77c-.15.45-.31.91-.45,1.36h-.79c-.82,2.54-1.42,5.17-1.77,7.89h.82c-.05.44-.1.9-.15,1.35h-.82c-.12,1.3-.2,2.61-.21,3.94h43.51v-43.49c-13.41.09-25.39,6.2-33.36,15.77ZM225.11,269.13c.01,1.34.07,2.65.21,3.95h.82c.05.45.1.91.15,1.35h-.82c.34,2.71.93,5.35,1.75,7.89h.8c.15.45.31.91.45,1.35h-.79c1.53,4.29,3.73,8.28,6.45,11.83h.69c.34.47.7.91,1.07,1.36h-.67c7.71,9.24,19.13,15.28,31.99,15.77h1.41v-43.5h-43.51ZM269.28,269.13v43.5h1.45c.83-.04,1.67-.09,2.5-.17v-.86c.43-.04.87-.09,1.29-.13v-42.33h-5.24ZM274.58,269.13v43.18c2.71-.34,5.35-.93,7.89-1.75v-.83c.43-.14.87-.28,1.29-.43v-40.16h-9.18ZM285.06,230.42v-2.33c-4.88-1.93-10.21-2.99-15.78-3.03v43.49h15.78v-.07h1.35v-37.52c-.44-.18-.9-.36-1.35-.53ZM283.82,269.13v40.96c4.29-1.53,8.28-3.73,11.84-6.45v-.74c.43-.33.87-.66,1.29-1.01v-32.76h-13.13ZM308.85,250.6v.98c-.43-.86-.88-1.71-1.36-2.54v-1.15c-2.1-3.85-4.77-7.35-7.89-10.39v1.77c-.44-.41-.9-.8-1.35-1.19v-1.84c-3.48-3.13-7.47-5.71-11.83-7.58v39.9h11.83v-.09h1.35v.07h7.89v-.07h1.36v.07h3.94v-1.4c-.23-5.89-1.62-11.47-3.94-16.54ZM297.01,269.13v33.41c9.25-7.69,15.29-19.12,15.78-31.98v-1.44h-15.78ZM297.01,269.13v33.41c9.25-7.69,15.29-19.12,15.78-31.98v-1.44h-15.78ZM308.85,250.6v.98c-.43-.86-.88-1.71-1.36-2.54v-1.15c-2.1-3.85-4.77-7.35-7.89-10.39v1.77c-.44-.41-.9-.8-1.35-1.19v-1.84c-3.48-3.13-7.47-5.71-11.83-7.58v39.9h11.83v-.09h1.35v.07h7.89v-.07h1.36v.07h3.94v-1.4c-.23-5.89-1.62-11.47-3.94-16.54ZM283.82,269.13v40.96c4.29-1.53,8.28-3.73,11.84-6.45v-.74c.43-.33.87-.66,1.29-1.01v-32.76h-13.13ZM285.06,230.42v-2.33c-4.88-1.93-10.21-2.99-15.78-3.03v43.49h15.78v-.07h1.35v-37.52c-.44-.18-.9-.36-1.35-.53ZM274.58,269.13v43.18c2.71-.34,5.35-.93,7.89-1.75v-.83c.43-.14.87-.28,1.29-.43v-40.16h-9.18ZM269.28,269.13v43.5h1.45c.83-.04,1.67-.09,2.5-.17v-.86c.43-.04.87-.09,1.29-.13v-42.33h-5.24ZM225.11,269.13c.01,1.34.07,2.65.21,3.95h.82c.05.45.1.91.15,1.35h-.82c.34,2.71.93,5.35,1.75,7.89h.8c.15.45.31.91.45,1.35h-.79c1.53,4.29,3.73,8.28,6.45,11.83h.69c.34.47.7.91,1.07,1.36h-.67c7.71,9.24,19.13,15.28,31.99,15.77h1.41v-43.5h-43.51ZM235.13,240.82h.64c-.37.44-.72.9-1.07,1.36h-.65c-2.74,3.55-4.93,7.53-6.48,11.82h.77c-.15.45-.31.91-.45,1.36h-.79c-.82,2.54-1.42,5.17-1.77,7.89h.82c-.05.44-.1.9-.15,1.35h-.82c-.12,1.3-.2,2.61-.21,3.94h43.51v-43.49c-13.41.09-25.39,6.2-33.36,15.77ZM235.13,240.82h.64c-.37.44-.72.9-1.07,1.36h-.65c-2.74,3.55-4.93,7.53-6.48,11.82h.77c-.15.45-.31.91-.45,1.36h-.79c-.82,2.54-1.42,5.17-1.77,7.89h.82c-.05.44-.1.9-.15,1.35h-.82c-.12,1.3-.2,2.61-.21,3.94h43.51v-43.49c-13.41.09-25.39,6.2-33.36,15.77ZM225.11,269.13c.01,1.34.07,2.65.21,3.95h.82c.05.45.1.91.15,1.35h-.82c.34,2.71.93,5.35,1.75,7.89h.8c.15.45.31.91.45,1.35h-.79c1.53,4.29,3.73,8.28,6.45,11.83h.69c.34.47.7.91,1.07,1.36h-.67c7.71,9.24,19.13,15.28,31.99,15.77h1.41v-43.5h-43.51ZM269.28,269.13v43.5h1.45c.83-.04,1.67-.09,2.5-.17v-.86c.43-.04.87-.09,1.29-.13v-42.33h-5.24ZM274.58,269.13v43.18c2.71-.34,5.35-.93,7.89-1.75v-.83c.43-.14.87-.28,1.29-.43v-40.16h-9.18ZM285.06,230.42v-2.33c-4.88-1.93-10.21-2.99-15.78-3.03v43.49h15.78v-.07h1.35v-37.52c-.44-.18-.9-.36-1.35-.53ZM283.82,269.13v40.96c4.29-1.53,8.28-3.73,11.84-6.45v-.74c.43-.33.87-.66,1.29-1.01v-32.76h-13.13ZM308.85,250.6v.98c-.43-.86-.88-1.71-1.36-2.54v-1.15c-2.1-3.85-4.77-7.35-7.89-10.39v1.77c-.44-.41-.9-.8-1.35-1.19v-1.84c-3.48-3.13-7.47-5.71-11.83-7.58v39.9h11.83v-.09h1.35v.07h7.89v-.07h1.36v.07h3.94v-1.4c-.23-5.89-1.62-11.47-3.94-16.54ZM297.01,269.13v33.41c9.25-7.69,15.29-19.12,15.78-31.98v-1.44h-15.78ZM297.01,302.54c9.25-7.69,15.29-19.12,15.78-31.98v-1.44h-15.78v33.41ZM308.85,250.6v.98c-.43-.86-.88-1.71-1.36-2.54v-1.15c-2.1-3.85-4.77-7.35-7.89-10.39v1.77c-.44-.41-.9-.8-1.35-1.19v-1.84c-3.48-3.13-7.47-5.71-11.83-7.58v39.9h11.83v-.09h1.35v.07h7.89v-.07h1.36v.07h3.94v-1.4c-.23-5.89-1.62-11.47-3.94-16.54ZM283.82,269.13v40.96c4.29-1.53,8.28-3.73,11.84-6.45v-.74c.43-.33.87-.66,1.29-1.01v-32.76h-13.13ZM285.06,268.47h1.35v-37.52c-.44-.18-.9-.36-1.35-.53v-2.33c-4.88-1.93-10.21-2.99-15.78-3.03v43.49h15.78v-.07ZM274.58,269.13v43.18c2.71-.34,5.35-.93,7.89-1.75v-.83c.43-.14.87-.28,1.29-.43v-40.16h-9.18ZM269.28,269.13v43.5h1.45c.83-.04,1.67-.09,2.5-.17v-.86c.43-.04.87-.09,1.29-.13v-42.33h-5.24ZM225.31,273.08h.82c.05.45.1.91.15,1.35h-.82c.34,2.71.93,5.35,1.75,7.89h.8c.15.45.31.91.45,1.35h-.79c1.53,4.29,3.73,8.28,6.45,11.83h.69c.34.47.7.91,1.07,1.36h-.67c7.71,9.24,19.13,15.28,31.99,15.77h1.41v-43.5h-43.51c.01,1.34.07,2.65.21,3.95ZM268.49,225.06c-13.41.09-25.39,6.2-33.36,15.77h.64c-.37.44-.72.9-1.07,1.36h-.65c-2.74,3.55-4.93,7.53-6.48,11.82h.77c-.15.45-.31.91-.45,1.36h-.79c-.82,2.54-1.42,5.17-1.77,7.89h.82c-.05.44-.1.9-.15,1.35h-.82c-.12,1.3-.2,2.61-.21,3.94h43.51v-43.49ZM211.67,82.29h136.29c.99,0,1.8-.81,1.8-1.8v-39.66c0-22.55-18.28-40.83-40.83-40.83H40.83C18.28,0,0,18.28,0,40.83v268.1c0,22.55,18.28,40.83,40.83,40.83h268.1c22.55,0,40.83-18.28,40.83-40.83V104.67c0-.99-.81-1.8-1.8-1.8h-18.25c-.99,0-1.8.81-1.8,1.8v62.52c0,.99-.81,1.8-1.82,1.8h-76.72c-1.01,0-1.82.81-1.82,1.82s.81,1.8,1.82,1.8h76.72c1.01,0,1.82.81,1.82,1.82v27.89c0,1.01-.81,1.82-1.82,1.82h-114.43c-.99,0-1.8-.81-1.8-1.82v-63.41c0-1.01.81-1.82,1.8-1.82h73.08c.99,0,1.8-.81,1.8-1.8v-.16c0-.99-.81-1.8-1.8-1.8h-73.08c-.99,0-1.8-.82-1.8-1.82v-47.4c0-1.01.81-1.82,1.8-1.82ZM205.61,327.38c0,1.01-.81,1.82-1.8,1.82h-31.95c-1.01,0-1.82-.81-1.82-1.82v-66.72c0-1.01-.81-1.82-1.8-1.82h-.63c-1.01,0-1.82.81-1.82,1.82v66.72c0,1.01-.81,1.82-1.8,1.82h-30.85c-1.01,0-1.82-.81-1.82-1.82v-82.11c0-.99-.81-1.8-1.8-1.8h-.64c-.99,0-1.8.81-1.8,1.8v83.93c-10.94,0-20.85-4.47-28.02-11.67-7.18-7.21-11.61-17.18-11.61-28.18v-79.62c0-1.01.81-1.82,1.82-1.82h114.54c.99,0,1.8.81,1.8,1.82v117.66ZM205.61,202.32c0,1.01-.81,1.82-1.8,1.82h-114.55c-.99,0-1.8-.81-1.8-1.82v-63.41c0-1.01.81-1.82,1.8-1.82h114.55c.99,0,1.8.81,1.8,1.82v63.41ZM205.61,131.51c0,.99-.81,1.8-1.8,1.8h0s-114.55.01-114.55.01c-.99,0-1.8-.82-1.8-1.82v-37.34c0-6.56,5.29-11.88,11.8-11.88h104.55c.99,0,1.8.81,1.8,1.82v47.4ZM211.67,207.9h114.43c1.01,0,1.82.81,1.82,1.82v79.62c0,22.01-17.74,39.85-39.63,39.85h-76.61c-.99,0-1.8-.81-1.8-1.82v-117.66c0-1.01.81-1.82,1.8-1.82ZM297.01,302.54c9.25-7.69,15.29-19.12,15.78-31.98v-1.44h-15.78v33.41ZM298.25,268.47h1.35v.07h7.89v-.07h1.36v.07h3.94v-1.4c-.23-5.89-1.62-11.47-3.94-16.54v.98c-.43-.86-.88-1.71-1.36-2.54v-1.15c-2.1-3.85-4.77-7.35-7.89-10.39v1.77c-.44-.41-.9-.8-1.35-1.19v-1.84c-3.48-3.13-7.47-5.71-11.83-7.58v39.9h11.83v-.09ZM283.82,269.13v40.96c4.29-1.53,8.28-3.73,11.84-6.45v-.74c.43-.33.87-.66,1.29-1.01v-32.76h-13.13ZM285.06,268.47h1.35v-37.52c-.44-.18-.9-.36-1.35-.53v-2.33c-4.88-1.93-10.21-2.99-15.78-3.03v43.49h15.78v-.07ZM274.58,269.13v43.18c2.71-.34,5.35-.93,7.89-1.75v-.83c.43-.14.87-.28,1.29-.43v-40.16h-9.18ZM273.23,312.45v-.86c.43-.04.87-.09,1.29-.13v-42.33h-5.24v43.5h1.45c.83-.04,1.67-.09,2.5-.17ZM225.31,273.08h.82c.05.45.1.91.15,1.35h-.82c.34,2.71.93,5.35,1.75,7.89h.8c.15.45.31.91.45,1.35h-.79c1.53,4.29,3.73,8.28,6.45,11.83h.69c.34.47.7.91,1.07,1.36h-.67c7.71,9.24,19.13,15.28,31.99,15.77h1.41v-43.5h-43.51c.01,1.34.07,2.65.21,3.95ZM268.49,225.06c-13.41.09-25.39,6.2-33.36,15.77h.64c-.37.44-.72.9-1.07,1.36h-.65c-2.74,3.55-4.93,7.53-6.48,11.82h.77c-.15.45-.31.91-.45,1.36h-.79c-.82,2.54-1.42,5.17-1.77,7.89h.82c-.05.44-.1.9-.15,1.35h-.82c-.12,1.3-.2,2.61-.21,3.94h43.51v-43.49ZM235.13,240.82h.64c-.37.44-.72.9-1.07,1.36h-.65c-2.74,3.55-4.93,7.53-6.48,11.82h.77c-.15.45-.31.91-.45,1.36h-.79c-.82,2.54-1.42,5.17-1.77,7.89h.82c-.05.44-.1.9-.15,1.35h-.82c-.12,1.3-.2,2.61-.21,3.94h43.51v-43.49c-13.41.09-25.39,6.2-33.36,15.77ZM225.11,269.13c.01,1.34.07,2.65.21,3.95h.82c.05.45.1.91.15,1.35h-.82c.34,2.71.93,5.35,1.75,7.89h.8c.15.45.31.91.45,1.35h-.79c1.53,4.29,3.73,8.28,6.45,11.83h.69c.34.47.7.91,1.07,1.36h-.67c7.71,9.24,19.13,15.28,31.99,15.77h1.41v-43.5h-43.51ZM269.28,269.13v43.5h1.45c.83-.04,1.67-.09,2.5-.17v-.86c.43-.04.87-.09,1.29-.13v-42.33h-5.24ZM274.58,269.13v43.18c2.71-.34,5.35-.93,7.89-1.75v-.83c.43-.14.87-.28,1.29-.43v-40.16h-9.18ZM285.06,230.42v-2.33c-4.88-1.93-10.21-2.99-15.78-3.03v43.49h15.78v-.07h1.35v-37.52c-.44-.18-.9-.36-1.35-.53ZM283.82,269.13v40.96c4.29-1.53,8.28-3.73,11.84-6.45v-.74c.43-.33.87-.66,1.29-1.01v-32.76h-13.13ZM308.85,250.6v.98c-.43-.86-.88-1.71-1.36-2.54v-1.15c-2.1-3.85-4.77-7.35-7.89-10.39v1.77c-.44-.41-.9-.8-1.35-1.19v-1.84c-3.48-3.13-7.47-5.71-11.83-7.58v39.9h11.83v-.09h1.35v.07h7.89v-.07h1.36v.07h3.94v-1.4c-.23-5.89-1.62-11.47-3.94-16.54ZM297.01,269.13v33.41c9.25-7.69,15.29-19.12,15.78-31.98v-1.44h-15.78ZM297.01,269.13v33.41c9.25-7.69,15.29-19.12,15.78-31.98v-1.44h-15.78ZM308.85,250.6v.98c-.43-.86-.88-1.71-1.36-2.54v-1.15c-2.1-3.85-4.77-7.35-7.89-10.39v1.77c-.44-.41-.9-.8-1.35-1.19v-1.84c-3.48-3.13-7.47-5.71-11.83-7.58v39.9h11.83v-.09h1.35v.07h7.89v-.07h1.36v.07h3.94v-1.4c-.23-5.89-1.62-11.47-3.94-16.54ZM283.82,269.13v40.96c4.29-1.53,8.28-3.73,11.84-6.45v-.74c.43-.33.87-.66,1.29-1.01v-32.76h-13.13ZM285.06,230.42v-2.33c-4.88-1.93-10.21-2.99-15.78-3.03v43.49h15.78v-.07h1.35v-37.52c-.44-.18-.9-.36-1.35-.53ZM274.58,269.13v43.18c2.71-.34,5.35-.93,7.89-1.75v-.83c.43-.14.87-.28,1.29-.43v-40.16h-9.18ZM269.28,269.13v43.5h1.45c.83-.04,1.67-.09,2.5-.17v-.86c.43-.04.87-.09,1.29-.13v-42.33h-5.24ZM225.11,269.13c.01,1.34.07,2.65.21,3.95h.82c.05.45.1.91.15,1.35h-.82c.34,2.71.93,5.35,1.75,7.89h.8c.15.45.31.91.45,1.35h-.79c1.53,4.29,3.73,8.28,6.45,11.83h.69c.34.47.7.91,1.07,1.36h-.67c7.71,9.24,19.13,15.28,31.99,15.77h1.41v-43.5h-43.51ZM235.13,240.82h.64c-.37.44-.72.9-1.07,1.36h-.65c-2.74,3.55-4.93,7.53-6.48,11.82h.77c-.15.45-.31.91-.45,1.36h-.79c-.82,2.54-1.42,5.17-1.77,7.89h.82c-.05.44-.1.9-.15,1.35h-.82c-.12,1.3-.2,2.61-.21,3.94h43.51v-43.49c-13.41.09-25.39,6.2-33.36,15.77Z" style="fill: #fff;"/>
      <g id="Layer_1-3" data-name="Layer 1">
        <g>
          <path d="M211.67,82.29h136.29c.99,0,1.8-.81,1.8-1.8v-39.66c0-22.55-18.28-40.83-40.83-40.83H40.83C18.28,0,0,18.28,0,40.83v268.1c0,22.55,18.28,40.83,40.83,40.83h268.1c22.55,0,40.83-18.28,40.83-40.83V104.67c0-.99-.81-1.8-1.8-1.8h-18.25c-.99,0-1.8.81-1.8,1.8v62.52c0,.99-.81,1.8-1.82,1.8h-76.72c-1.01,0-1.82.81-1.82,1.82s.81,1.8,1.82,1.8h76.72c1.01,0,1.82.81,1.82,1.82v27.89c0,1.01-.81,1.82-1.82,1.82h-114.43c-.99,0-1.8-.81-1.8-1.82v-63.41c0-1.01.81-1.82,1.8-1.82h73.08c.99,0,1.8-.81,1.8-1.8v-.16c0-.99-.81-1.8-1.8-1.8h-73.08c-.99,0-1.8-.82-1.8-1.82v-47.4c0-1.01.81-1.82,1.8-1.82ZM205.61,327.38c0,1.01-.81,1.82-1.8,1.82h-31.95c-1.01,0-1.82-.81-1.82-1.82v-66.72c0-1.01-.81-1.82-1.8-1.82h-.63c-1.01,0-1.82.81-1.82,1.82v66.72c0,1.01-.81,1.82-1.8,1.82h-30.85c-1.01,0-1.82-.81-1.82-1.82v-82.11c0-.99-.81-1.8-1.8-1.8h-.64c-.99,0-1.8.81-1.8,1.8v83.93c-10.94,0-20.85-4.47-28.02-11.67-7.18-7.21-11.61-17.18-11.61-28.18v-79.62c0-1.01.81-1.82,1.82-1.82h114.54c.99,0,1.8.81,1.8,1.82v117.66ZM205.61,202.32c0,1.01-.81,1.82-1.8,1.82h-114.55c-.99,0-1.8-.81-1.8-1.82v-63.41c0-1.01.81-1.82,1.8-1.82h114.55c.99,0,1.8.81,1.8,1.82v63.41ZM205.61,131.51c0,.99-.81,1.8-1.8,1.8h0s-114.55.01-114.55.01c-.99,0-1.8-.82-1.8-1.82v-37.34c0-6.56,5.29-11.88,11.8-11.88h104.55c.99,0,1.8.81,1.8,1.82v47.4ZM211.67,207.9h114.43c1.01,0,1.82.81,1.82,1.82v79.62c0,22.01-17.74,39.85-39.63,39.85h-76.61c-.99,0-1.8-.81-1.8-1.82v-117.66c0-1.01.81-1.82,1.8-1.82Z" style="fill: #fafafa;"/>
          <g>
            <g>
              <path d="M268.49,240.82v1.36h-33.79c.34-.47.7-.92,1.07-1.36h32.72Z" style="fill: #f47c2a;"/>
              <path d="M268.49,254v1.36h-40.6c.15-.45.31-.91.45-1.36h40.15Z" style="fill: #f47c2a;"/>
              <path d="M268.49,263.25v1.35h-42.48c.05-.45.1-.91.15-1.35h42.33Z" style="fill: #f47c2a;"/>
            </g>
            <g>
              <path d="M268.61,295.5v1.36h-32.72c-.37-.45-.72-.9-1.07-1.36h33.79Z" style="fill: #1abcdc;"/>
              <path d="M268.61,282.32v1.35h-40.15c-.15-.44-.31-.9-.45-1.35h40.6Z" style="fill: #1abcdc;"/>
              <path d="M268.61,273.08v1.35h-42.33c-.05-.44-.1-.9-.15-1.35h42.48Z" style="fill: #1abcdc;"/>
            </g>
            <g>
              <path d="M286.41,230.95v37.52h-1.35v-38.05c.45.17.91.34,1.35.53Z" style="fill: #eb3f39;"/>
              <path d="M299.6,239.26v29.2h-1.35v-30.39c.45.39.91.79,1.35,1.19Z" style="fill: #eb3f39;"/>
              <path d="M308.85,251.58v16.88h-1.36v-19.42c.48.83.93,1.68,1.36,2.54Z" style="fill: #eb3f39;"/>
            </g>
            <g>
              <path d="M274.52,269.13v42.33c-.42.05-.86.1-1.29.13-.02.01-.04.01-.06.01v-42.48h1.35Z" style="fill: #bcd631;"/>
              <path d="M283.76,269.13v40.16c-.42.15-.86.29-1.29.43-.02.01-.04.01-.06.02v-40.61h1.35Z" style="fill: #bcd631;"/>
              <path d="M296.95,269.13v32.76c-.42.34-.86.67-1.29,1.01-.02.01-.04.04-.06.05v-33.82h1.35Z" style="fill: #bcd631;"/>
            </g>
            <g>
              <path d="M268.49,225.06v15.77h-33.36c7.98-9.57,19.95-15.68,33.36-15.77Z" style="fill: #eb3f39;"/>
              <path d="M268.49,242.18v11.82h-40.92c1.55-4.28,3.74-8.27,6.48-11.82h34.44Z" style="fill: #eb3f39;"/>
              <path d="M268.49,255.36v7.89h-43.15c.34-2.72.94-5.35,1.77-7.89h41.39Z" style="fill: #eb3f39;"/>
              <path d="M268.49,264.6v3.94h-43.51c.01-1.33.09-2.64.21-3.94h43.3Z" style="fill: #eb3f39;"/>
            </g>
            <path d="M268.61,269.13v3.95h-43.3c-.13-1.3-.2-2.61-.21-3.95h43.51Z" style="fill: #f47c2a;"/>
            <path d="M268.61,274.43v7.89h-41.4c-.82-2.54-1.41-5.18-1.75-7.89h43.15Z" style="fill: #f47c2a;"/>
            <path d="M268.61,283.67v11.83h-34.48c-2.72-3.55-4.92-7.53-6.45-11.83h40.93Z" style="fill: #f47c2a;"/>
            <path d="M268.61,296.86v15.77h-1.41c-12.86-.49-24.28-6.53-31.99-15.77h33.4Z" style="fill: #f47c2a;"/>
            <path d="M273.23,269.13v43.33c-.83.09-1.67.14-2.5.17h-1.45v-43.5h3.95Z" style="fill: #1abcdc;"/>
            <path d="M282.47,269.13v41.42c-2.54.82-5.18,1.41-7.89,1.75v-43.18h7.89Z" style="fill: #1abcdc;"/>
            <path d="M295.66,269.13v34.5c-3.56,2.72-7.55,4.92-11.84,6.45v-40.96h11.84Z" style="fill: #1abcdc;"/>
            <path d="M312.79,269.13v1.44c-.49,12.86-6.53,24.28-15.78,31.98v-33.41h15.78Z" style="fill: #1abcdc;"/>
            <g>
              <path d="M285.06,228.09v40.45h-15.78v-43.49c5.57.04,10.9,1.1,15.78,3.03Z" style="fill: #bcd631;"/>
              <path d="M298.25,236.23v32.32h-11.83v-39.9c4.36,1.88,8.34,4.45,11.83,7.58Z" style="fill: #bcd631;"/>
              <path d="M307.49,247.89v20.65h-7.89v-31.04c3.12,3.04,5.79,6.54,7.89,10.39Z" style="fill: #bcd631;"/>
              <path d="M312.79,267.14v1.4h-3.94v-17.94c2.32,5.07,3.71,10.65,3.94,16.54Z" style="fill: #bcd631;"/>
            </g>
          </g>
        </g>
      </g>
    </g>
  </g>
</svg>